<svg width="19" height="19" viewBox="0 0 19 19" fill="none" xmlns="http://www.w3.org/2000/svg">
<path d="M9.5 2.6375C9.81025 2.6375 10.1175 2.69861 10.4041 2.81733C10.6907 2.93606 10.9512 3.11008 11.1705 3.32946C11.3899 3.54884 11.5639 3.80928 11.6827 4.09591C11.8014 4.38254 11.8625 4.68975 11.8625 5C11.8625 5.31025 11.8014 5.61746 11.6827 5.90409C11.5639 6.19072 11.3899 6.45116 11.1705 6.67054C10.9512 6.88992 10.6907 7.06394 10.4041 7.18267C10.1175 7.30139 9.81025 7.3625 9.5 7.3625C8.87343 7.3625 8.27251 7.11359 7.82946 6.67054C7.38641 6.22749 7.1375 5.62657 7.1375 5C7.1375 4.37343 7.38641 3.77251 7.82946 3.32946C8.27251 2.88641 8.87343 2.6375 9.5 2.6375ZM9.5 12.7625C12.8413 12.7625 16.3625 14.405 16.3625 15.125V16.3625H9.5H2.6375V15.125C2.6375 14.405 6.15875 12.7625 9.5 12.7625ZM9.5 0.5C7.01375 0.5 5 2.51375 5 5C5 7.48625 7.01375 9.5 9.5 9.5C11.9862 9.5 14 7.48625 14 5C14 2.51375 11.9862 0.5 9.5 0.5ZM9.5 10.625C6.49625 10.625 0.5 12.1325 0.5 15.125V17.375C0.5 17.9937 1.00625 18.5 1.625 18.5H17.375C17.9937 18.5 18.5 17.9937 18.5 17.375V15.125C18.5 12.1325 12.5037 10.625 9.5 10.625Z" fill="#FDE500"/>
</svg>
