<svg width="113" height="88" viewBox="0 0 113 88" fill="none" xmlns="http://www.w3.org/2000/svg">
<g clip-path="url(#clip0_789_1445)">
<path d="M6.46168 84.4303H15.6735V87.6947H0L9.69163 71.5153H1.52669V68.251H16.1515L6.46168 84.4303Z" fill="#333333"/>
<path d="M22.194 75.0718V82.2141C22.194 82.8851 22.2529 83.789 22.9716 84.4304C23.4962 84.8443 24.1506 85.0701 24.8256 85.0701C25.5005 85.0701 26.155 84.8443 26.6795 84.4304C27.3929 83.789 27.4589 82.8851 27.4589 82.2141V75.0718H31.1062V82.793C31.1062 83.9297 30.9582 85.4472 29.5225 86.6709C28.3257 87.6913 26.412 88.0997 24.8265 88.0997C23.2409 88.0997 21.3272 87.6913 20.1305 86.6709C18.6947 85.4542 18.5449 83.9297 18.5449 82.793V75.0718H22.194Z" fill="#333333"/>
<path d="M44.5049 70.3472H48.154V87.6946H44.5049V86.0624C43.1905 87.898 41.4551 88.1031 40.5277 88.1031C36.5504 88.1031 33.918 85.0699 33.918 81.3692C33.918 77.6373 36.5201 74.6649 40.3386 74.6649C41.3267 74.6649 43.2707 74.8387 44.496 76.7038L44.5049 70.3472ZM37.6865 81.3692C37.6865 83.3803 39.1811 84.9534 41.275 84.9534C43.3688 84.9534 44.8652 83.389 44.8652 81.3692C44.8652 79.3494 43.3688 77.8128 41.275 77.8128C39.1811 77.8128 37.6865 79.3581 37.6865 81.3692Z" fill="#333333"/>
<path d="M61.5537 75.0718H65.2117V87.6947H61.5537V86.0626C60.2375 87.8981 58.5039 88.1032 57.5765 88.1032C53.5993 88.1032 50.9668 85.07 50.9668 81.3694C50.9668 77.6374 53.5689 74.665 57.3964 74.665C58.3844 74.665 60.3285 74.8389 61.5537 76.704V75.0718ZM54.7354 81.3694C54.7354 83.3805 56.23 84.9536 58.3238 84.9536C60.4176 84.9536 61.914 83.3892 61.914 81.3694C61.914 79.3495 60.4176 77.813 58.3238 77.813C56.23 77.813 54.7354 79.3582 54.7354 81.3694Z" fill="#333333"/>
<path d="M68.6738 75.0717H72.3229V76.5005C72.7736 75.9216 73.3575 75.4539 74.0275 75.135C74.6976 74.8162 75.4351 74.6552 76.1807 74.665C78.9023 74.665 79.9492 76.3267 80.2827 76.9664C80.9105 75.9756 82.1964 74.665 84.4401 74.665C86.443 74.665 87.4311 75.5671 87.9394 76.2085C88.7758 77.2879 88.8311 78.3656 88.8311 79.7649V87.6947H85.1874V80.8148C85.1874 79.3286 84.8592 78.6577 84.5899 78.3378C84.4085 78.1253 84.1789 77.9567 83.9192 77.8454C83.6596 77.7341 83.3769 77.6831 83.0936 77.6964C82.1073 77.6964 81.4884 78.1327 81.0907 78.8037C80.6109 79.5615 80.5806 80.5819 80.5806 81.2528V87.6947H76.9279V80.8148C76.9279 79.3286 76.5998 78.6577 76.3305 78.3378C76.1493 78.1254 75.92 77.9569 75.6607 77.8456C75.4013 77.7343 75.119 77.6832 74.8359 77.6964C73.8478 77.6964 73.22 78.1327 72.8312 78.8037C72.3532 79.5615 72.3229 80.5819 72.3229 81.2528V87.6947H68.6738V75.0717Z" fill="#333333"/>
<path d="M102.231 75.0718H105.875V87.6947H102.231V86.0626C100.915 87.8981 99.1799 88.1032 98.2542 88.1032C94.2752 88.1032 91.6445 85.07 91.6445 81.3694C91.6445 77.6374 94.2449 74.665 98.0652 74.665C99.0515 74.665 100.997 74.8389 102.223 76.704L102.231 75.0718ZM95.4131 81.3694C95.4131 83.3805 96.9077 84.9536 99.0015 84.9536C101.095 84.9536 102.59 83.3892 102.59 81.3694C102.59 79.3495 101.095 77.813 99.0015 77.813C96.9077 77.813 95.4131 79.3582 95.4131 81.3694Z" fill="#333333"/>
<path d="M113.001 70.3472V87.6946H109.352V70.3472H113.001Z" fill="#333333"/>
<path d="M72.1743 0H41.1637C33.6951 0 27.6406 5.90074 27.6406 13.1797V43.4027C27.6406 50.6816 33.6951 56.5823 41.1637 56.5823H72.1743C79.6429 56.5823 85.6974 50.6816 85.6974 43.4027V13.1797C85.6974 5.90074 79.6429 0 72.1743 0Z" fill="#FDE500"/>
<path d="M40.1914 29.6663C41.4124 29.6734 42.6051 29.3083 43.6026 28.6219C44.6 27.9356 45.3523 26.9625 45.7542 25.8388C46.5785 23.4737 48.1414 21.4193 50.224 19.9634C52.3065 18.5076 54.8043 17.7233 57.3672 17.7206H68.332C67.712 19.723 66.344 21.426 64.4981 22.493L61.4249 23.9424C60.8434 24.2164 60.3229 24.5993 59.8931 25.0693C59.4634 25.5394 59.1329 26.0873 58.9205 26.6818C58.708 27.2764 58.6178 27.9058 58.655 28.5343C58.6922 29.1628 58.8561 29.7781 59.1372 30.3448L66.7268 26.7675L66.8861 26.6859C68.9294 25.5311 70.6262 23.8741 71.8069 21.8803C72.9876 19.8865 73.6109 17.6257 73.6147 15.3237V12.9268H57.3672C52.8134 12.9317 48.4477 14.6969 45.2277 17.8351C42.0077 20.9733 40.1965 25.2282 40.1914 29.6663Z" fill="#2B2D33"/>
<path d="M73.1484 26.9161C71.9275 26.9092 70.7349 27.2744 69.7375 27.9607C68.74 28.647 67.9877 29.62 67.5857 30.7436C66.7614 33.1087 65.1984 35.1631 63.1159 36.619C61.0333 38.0748 58.5356 38.859 55.9727 38.8618H45.0078C45.6278 36.8594 46.9959 35.1564 48.8417 34.0894L51.9163 32.64C52.4979 32.366 53.0184 31.9831 53.4481 31.513C53.8778 31.043 54.2083 30.4951 54.4207 29.9006C54.6332 29.306 54.7234 28.6765 54.6862 28.048C54.649 27.4195 54.4852 26.8043 54.204 26.2375L46.6144 29.8148L46.4552 29.8965C44.412 31.0515 42.7154 32.7085 41.5347 34.7023C40.354 36.696 39.7306 38.9567 39.7266 41.2587V43.6596H55.9727C60.5271 43.6547 64.8935 41.8889 68.1136 38.7498C71.3337 35.6108 73.1444 31.3549 73.1484 26.9161Z" fill="#2B2D33"/>
</g>
<defs>
<clipPath id="clip0_789_1445">
<rect width="113" height="88" fill="white"/>
</clipPath>
</defs>
</svg>
